<?xml version="1.0" encoding="UTF-8" standalone="no"?>
<svg
   width="96"
   height="96"
   viewBox="0 0 48 48"
   version="1.1"
   id="svg1"
   sodipodi:docname="arcticons--deviantart.svg"
   inkscape:version="1.3.2 (091e20e, 2023-11-25, custom)"
   xmlns:inkscape="http://www.inkscape.org/namespaces/inkscape"
   xmlns:sodipodi="http://sodipodi.sourceforge.net/DTD/sodipodi-0.dtd"
   xmlns="http://www.w3.org/2000/svg"
   xmlns:svg="http://www.w3.org/2000/svg">
  <defs
     id="defs1" />
  <sodipodi:namedview
     id="namedview1"
     pagecolor="#505050"
     bordercolor="#ffffff"
     borderopacity="1"
     inkscape:showpageshadow="0"
     inkscape:pageopacity="0"
     inkscape:pagecheckerboard="1"
     inkscape:deskcolor="#505050"
     inkscape:zoom="8.71875"
     inkscape:cx="47.942652"
     inkscape:cy="48"
     inkscape:window-width="1920"
     inkscape:window-height="1051"
     inkscape:window-x="-9"
     inkscape:window-y="-9"
     inkscape:window-maximized="1"
     inkscape:current-layer="svg1" />
  <path
     fill="none"
     stroke="#00ff80"
     stroke-linecap="round"
     stroke-linejoin="round"
     d="m19.363 43.5l4.071-7.768l12.64-.021v-9.754l-7.524-.009l7.524-14.347V4.5h-7.439l-4.071 7.793l-12.638.015v9.735l7.53-.003l-7.53 14.378V43.5z"
     id="path1" />
  <path
     style="fill:#1cd000;fill-opacity:0;stroke:none;stroke-width:1.69063;stroke-linejoin:round;paint-order:markers fill stroke"
     d="m 23.220593,87.632453 -0.281525,-0.281524 v -7.395291 -7.39529 l 7.168206,-13.685192 c 3.942513,-7.526856 7.168319,-13.723902 7.168458,-13.771213 1.4e-4,-0.04731 -3.098867,-0.08602 -6.88668,-0.08602 H 23.502118 L 23.220593,44.736396 22.939068,44.454871 V 34.369174 c 0,-9.759167 0.0071,-10.094463 0.219242,-10.356468 l 0.219241,-0.270771 12.597963,-0.05735 12.597963,-0.05735 3.921633,-7.512545 c 2.156897,-4.131899 4.02396,-7.6286735 4.149027,-7.770609 l 0.227394,-0.2580645 h 7.813176 7.813175 l 0.281524,0.2815249 0.281526,0.281525 v 7.4134456 7.413446 l -7.104959,13.55234 c -3.907728,7.453789 -7.139057,13.642665 -7.18073,13.753059 -0.07164,0.189774 0.300361,0.200717 6.823435,0.200717 h 6.899204 l 0.281524,0.281525 0.281526,0.281525 V 61.680882 71.81664 l -0.295953,0.278058 -0.295952,0.278057 -12.530099,0.03957 -12.530099,0.03957 -3.945583,7.527762 c -2.17007,4.14027 -4.037056,7.619238 -4.148858,7.73104 -0.190589,0.190589 -0.69041,0.203276 -8.007774,0.203276 H 23.502118 Z M 42.15306,78.442691 c 3.22372,-6.153651 4.061606,-7.667831 4.315807,-7.799283 0.266932,-0.138037 2.194711,-0.163121 12.53619,-0.163121 h 12.220749 v -8.831541 -8.831542 h -7.210338 c -7.120835,0 -7.214091,-0.003 -7.512545,-0.237715 -0.215562,-0.169561 -0.302206,-0.344431 -0.302206,-0.609927 0,-0.270189 2.059164,-4.29969 7.512545,-14.701015 L 71.225806,22.939741 V 16.430444 9.921147 h -6.69054 -6.690542 l -3.929998,7.541219 c -2.161499,4.14767 -4.05686,7.657347 -4.211912,7.799283 L 49.4209,25.519713 H 37.097547 24.774194 v 8.831541 8.831542 h 7.247088 7.247088 l 0.265457,0.249383 c 0.16913,0.158891 0.265456,0.381227 0.265456,0.61272 0,0.258313 -2.171484,4.508766 -7.512545,14.705019 l -7.512544,14.341685 v 6.493625 6.493625 h 6.689249 6.68925 z"
     id="path2"
     transform="scale(0.5)" />
  <path
     style="fill:#1cd000;fill-opacity:0;stroke:none;stroke-width:1.69063;stroke-linejoin:round;paint-order:markers fill stroke"
     d="m 23.220593,87.632453 -0.281525,-0.281524 v -7.395291 -7.39529 l 7.168206,-13.685192 c 3.942513,-7.526856 7.168319,-13.723902 7.168458,-13.771213 1.4e-4,-0.04731 -3.098867,-0.08602 -6.88668,-0.08602 H 23.502118 L 23.220593,44.736396 22.939068,44.454871 V 34.369174 c 0,-9.759167 0.0071,-10.094463 0.219242,-10.356468 l 0.219241,-0.270771 12.597963,-0.05735 12.597963,-0.05735 3.921633,-7.512545 c 2.156897,-4.131899 4.02396,-7.6286735 4.149027,-7.770609 l 0.227394,-0.2580645 h 7.813176 7.813175 l 0.281524,0.2815249 0.281526,0.281525 v 7.4134456 7.413446 l -7.104959,13.55234 c -3.907728,7.453789 -7.139057,13.642665 -7.18073,13.753059 -0.07164,0.189774 0.300361,0.200717 6.823435,0.200717 h 6.899204 l 0.281524,0.281525 0.281526,0.281525 V 61.680882 71.81664 l -0.295953,0.278058 -0.295952,0.278057 -12.530099,0.03957 -12.530099,0.03957 -3.945583,7.527762 c -2.17007,4.14027 -4.037056,7.619238 -4.148858,7.73104 -0.190589,0.190589 -0.69041,0.203276 -8.007774,0.203276 H 23.502118 Z M 42.15306,78.442691 c 3.22372,-6.153651 4.061606,-7.667831 4.315807,-7.799283 0.266932,-0.138037 2.194711,-0.163121 12.53619,-0.163121 h 12.220749 v -8.831541 -8.831542 h -7.210338 c -7.120835,0 -7.214091,-0.003 -7.512545,-0.237715 -0.215562,-0.169561 -0.302206,-0.344431 -0.302206,-0.609927 0,-0.270189 2.059164,-4.29969 7.512545,-14.701015 L 71.225806,22.939741 V 16.430444 9.921147 h -6.69054 -6.690542 l -3.929998,7.541219 c -2.161499,4.14767 -4.05686,7.657347 -4.211912,7.799283 L 49.4209,25.519713 H 37.097547 24.774194 v 8.831541 8.831542 h 7.247088 7.247088 l 0.265457,0.249383 c 0.16913,0.158891 0.265456,0.381227 0.265456,0.61272 0,0.258313 -2.171484,4.508766 -7.512545,14.705019 l -7.512544,14.341685 v 6.493625 6.493625 h 6.689249 6.68925 z"
     id="path3"
     transform="scale(0.5)" />
  <path
     style="fill:#1cd000;fill-opacity:0;stroke:none;stroke-width:1.69063;stroke-linejoin:round;paint-order:markers fill stroke"
     d=""
     id="path4"
     transform="scale(0.5)" />
  <path
     style="fill:#02f17a;fill-opacity:0;stroke:none;stroke-width:1.69063;stroke-linejoin:round;paint-order:markers fill stroke"
     d="m 23.220593,87.632453 -0.281525,-0.281524 v -7.395291 -7.39529 l 7.168206,-13.685192 c 3.942513,-7.526856 7.168319,-13.723902 7.168458,-13.771213 1.4e-4,-0.04731 -3.098867,-0.08602 -6.88668,-0.08602 H 23.502118 L 23.220593,44.736396 22.939068,44.454871 V 34.369174 c 0,-9.759167 0.0071,-10.094463 0.219242,-10.356468 l 0.219241,-0.270771 12.597963,-0.05735 12.597963,-0.05735 3.921633,-7.512545 c 2.156897,-4.131899 4.02396,-7.6286735 4.149027,-7.770609 l 0.227394,-0.2580645 h 7.813176 7.813175 l 0.281524,0.2815249 0.281526,0.281525 v 7.4134456 7.413446 l -7.104959,13.55234 c -3.907728,7.453789 -7.139057,13.642665 -7.18073,13.753059 -0.07164,0.189774 0.300361,0.200717 6.823435,0.200717 h 6.899204 l 0.281524,0.281525 0.281526,0.281525 V 61.680882 71.81664 l -0.295953,0.278058 -0.295952,0.278057 -12.530099,0.03957 -12.530099,0.03957 -3.945583,7.527762 c -2.17007,4.14027 -4.037056,7.619238 -4.148858,7.73104 -0.190589,0.190589 -0.69041,0.203276 -8.007774,0.203276 H 23.502118 Z M 42.15306,78.442691 c 3.22372,-6.153651 4.061606,-7.667831 4.315807,-7.799283 0.266932,-0.138037 2.194711,-0.163121 12.53619,-0.163121 h 12.220749 v -8.831541 -8.831542 h -7.210338 c -7.120835,0 -7.214091,-0.003 -7.512545,-0.237715 -0.215562,-0.169561 -0.302206,-0.344431 -0.302206,-0.609927 0,-0.270189 2.059164,-4.29969 7.512545,-14.701015 L 71.225806,22.939741 V 16.430444 9.921147 h -6.69054 -6.690542 l -3.929998,7.541219 c -2.161499,4.14767 -4.05686,7.657347 -4.211912,7.799283 L 49.4209,25.519713 H 37.097547 24.774194 v 8.831541 8.831542 h 7.247088 7.247088 l 0.265457,0.249383 c 0.16913,0.158891 0.265456,0.381227 0.265456,0.61272 0,0.258313 -2.171484,4.508766 -7.512545,14.705019 l -7.512544,14.341685 v 6.493625 6.493625 h 6.689249 6.68925 z"
     id="path5"
     transform="scale(0.5)" />
  <path
     style="fill:#02f17a;fill-opacity:0;stroke:none;stroke-width:1.69063;stroke-linejoin:round;paint-order:markers fill stroke"
     d="m 23.220593,87.632453 -0.281525,-0.281524 v -7.395291 -7.39529 l 7.168206,-13.685192 c 3.942513,-7.526856 7.168319,-13.723902 7.168458,-13.771213 1.4e-4,-0.04731 -3.098867,-0.08602 -6.88668,-0.08602 H 23.502118 L 23.220593,44.736396 22.939068,44.454871 V 34.369174 c 0,-9.759167 0.0071,-10.094463 0.219242,-10.356468 l 0.219241,-0.270771 12.597963,-0.05735 12.597963,-0.05735 3.921633,-7.512545 c 2.156897,-4.131899 4.02396,-7.6286735 4.149027,-7.770609 l 0.227394,-0.2580645 h 7.813176 7.813175 l 0.281524,0.2815249 0.281526,0.281525 v 7.4134456 7.413446 l -7.104959,13.55234 c -3.907728,7.453789 -7.139057,13.642665 -7.18073,13.753059 -0.07164,0.189774 0.300361,0.200717 6.823435,0.200717 h 6.899204 l 0.281524,0.281525 0.281526,0.281525 V 61.680882 71.81664 l -0.295953,0.278058 -0.295952,0.278057 -12.530099,0.03957 -12.530099,0.03957 -3.945583,7.527762 c -2.17007,4.14027 -4.037056,7.619238 -4.148858,7.73104 -0.190589,0.190589 -0.69041,0.203276 -8.007774,0.203276 H 23.502118 Z M 42.15306,78.442691 c 3.22372,-6.153651 4.061606,-7.667831 4.315807,-7.799283 0.266932,-0.138037 2.194711,-0.163121 12.53619,-0.163121 h 12.220749 v -8.831541 -8.831542 h -7.210338 c -7.120835,0 -7.214091,-0.003 -7.512545,-0.237715 -0.215562,-0.169561 -0.302206,-0.344431 -0.302206,-0.609927 0,-0.270189 2.059164,-4.29969 7.512545,-14.701015 L 71.225806,22.939741 V 16.430444 9.921147 h -6.69054 -6.690542 l -3.929998,7.541219 c -2.161499,4.14767 -4.05686,7.657347 -4.211912,7.799283 L 49.4209,25.519713 H 37.097547 24.774194 v 8.831541 8.831542 h 7.247088 7.247088 l 0.265457,0.249383 c 0.16913,0.158891 0.265456,0.381227 0.265456,0.61272 0,0.258313 -2.171484,4.508766 -7.512545,14.705019 l -7.512544,14.341685 v 6.493625 6.493625 h 6.689249 6.68925 z"
     id="path6"
     transform="scale(0.5)" />
  <path
     style="fill:#02f17a;fill-opacity:0;stroke:#241f1c;stroke-width:0;stroke-linejoin:round;paint-order:markers fill stroke;stroke-opacity:1;stroke-dasharray:none"
     d="m 23.220593,87.632453 -0.281525,-0.281524 v -7.395291 -7.39529 l 7.168206,-13.685192 c 3.942513,-7.526856 7.168319,-13.723902 7.168458,-13.771213 1.4e-4,-0.04731 -3.098867,-0.08602 -6.88668,-0.08602 H 23.502118 L 23.220593,44.736396 22.939068,44.454871 V 34.369174 c 0,-9.759167 0.0071,-10.094463 0.219242,-10.356468 l 0.219241,-0.270771 12.597963,-0.05735 12.597963,-0.05735 3.921633,-7.512545 c 2.156897,-4.131899 4.02396,-7.6286735 4.149027,-7.770609 l 0.227394,-0.2580645 h 7.813176 7.813175 l 0.281524,0.2815249 0.281526,0.281525 v 7.4134456 7.413446 l -7.104959,13.55234 c -3.907728,7.453789 -7.139057,13.642665 -7.18073,13.753059 -0.07164,0.189774 0.300361,0.200717 6.823435,0.200717 h 6.899204 l 0.281524,0.281525 0.281526,0.281525 V 61.680882 71.81664 l -0.295953,0.278058 -0.295952,0.278057 -12.530099,0.03957 -12.530099,0.03957 -3.945583,7.527762 c -2.17007,4.14027 -4.037056,7.619238 -4.148858,7.73104 -0.190589,0.190589 -0.69041,0.203276 -8.007774,0.203276 H 23.502118 Z M 42.15306,78.442691 c 3.22372,-6.153651 4.061606,-7.667831 4.315807,-7.799283 0.266932,-0.138037 2.194711,-0.163121 12.53619,-0.163121 h 12.220749 v -8.831541 -8.831542 h -7.210338 c -7.120835,0 -7.214091,-0.003 -7.512545,-0.237715 -0.215562,-0.169561 -0.302206,-0.344431 -0.302206,-0.609927 0,-0.270189 2.059164,-4.29969 7.512545,-14.701015 L 71.225806,22.939741 V 16.430444 9.921147 h -6.69054 -6.690542 l -3.929998,7.541219 c -2.161499,4.14767 -4.05686,7.657347 -4.211912,7.799283 L 49.4209,25.519713 H 37.097547 24.774194 v 8.831541 8.831542 h 7.247088 7.247088 l 0.265457,0.249383 c 0.16913,0.158891 0.265456,0.381227 0.265456,0.61272 0,0.258313 -2.171484,4.508766 -7.512545,14.705019 l -7.512544,14.341685 v 6.493625 6.493625 h 6.689249 6.68925 z"
     id="path7"
     transform="scale(0.5)" />
  <path
     style="fill:#00e81a;fill-opacity:1;stroke:#241f1c;stroke-width:0;stroke-linejoin:round;stroke-dasharray:none;stroke-opacity:1;paint-order:markers fill stroke"
     d="m 23.220593,87.632453 -0.281525,-0.281524 v -7.395291 -7.39529 l 7.168206,-13.685192 c 3.942513,-7.526856 7.168319,-13.723902 7.168458,-13.771213 1.4e-4,-0.04731 -3.098867,-0.08602 -6.88668,-0.08602 H 23.502118 L 23.220593,44.736396 22.939068,44.454871 V 34.369174 c 0,-9.759167 0.0071,-10.094463 0.219242,-10.356468 l 0.219241,-0.270771 12.597963,-0.05735 12.597963,-0.05735 3.921633,-7.512545 c 2.156897,-4.131899 4.02396,-7.6286735 4.149027,-7.770609 l 0.227394,-0.2580645 h 7.813176 7.813175 l 0.281524,0.2815249 0.281526,0.281525 v 7.4134456 7.413446 l -7.104959,13.55234 c -3.907728,7.453789 -7.139057,13.642665 -7.18073,13.753059 -0.07164,0.189774 0.300361,0.200717 6.823435,0.200717 h 6.899204 l 0.281524,0.281525 0.281526,0.281525 V 61.680882 71.81664 l -0.295953,0.278058 -0.295952,0.278057 -12.530099,0.03957 -12.530099,0.03957 -3.945583,7.527762 c -2.17007,4.14027 -4.037056,7.619238 -4.148858,7.73104 -0.190589,0.190589 -0.69041,0.203276 -8.007774,0.203276 H 23.502118 Z M 42.15306,78.442691 c 3.22372,-6.153651 4.061606,-7.667831 4.315807,-7.799283 0.266932,-0.138037 2.194711,-0.163121 12.53619,-0.163121 h 12.220749 v -8.831541 -8.831542 h -7.210338 c -7.120835,0 -7.214091,-0.003 -7.512545,-0.237715 -0.215562,-0.169561 -0.302206,-0.344431 -0.302206,-0.609927 0,-0.270189 2.059164,-4.29969 7.512545,-14.701015 L 71.225806,22.939741 V 16.430444 9.921147 h -6.69054 -6.690542 l -3.929998,7.541219 c -2.161499,4.14767 -4.05686,7.657347 -4.211912,7.799283 L 49.4209,25.519713 H 37.097547 24.774194 v 8.831541 8.831542 h 7.247088 7.247088 l 0.265457,0.249383 c 0.16913,0.158891 0.265456,0.381227 0.265456,0.61272 0,0.258313 -2.171484,4.508766 -7.512545,14.705019 l -7.512544,14.341685 v 6.493625 6.493625 h 6.689249 6.68925 z"
     id="path8"
     transform="scale(0.5)" />
</svg>
